<?xml version="1.0" standalone="no"?>
<!DOCTYPE svg PUBLIC "-//W3C//DTD SVG 20010904//EN"
 "http://www.w3.org/TR/2001/REC-SVG-20010904/DTD/svg10.dtd">
<svg version="1.0" xmlns="http://www.w3.org/2000/svg"
 width="260.000000pt" height="260.000000pt" viewBox="0 0 260.000000 260.000000"
 preserveAspectRatio="xMidYMid meet">
<metadata>
Created by potrace 1.11, written by Peter Selinger 2001-2013
</metadata>
<g transform="translate(0.000000,260.000000) scale(0.100000,-0.100000)"
fill="#000000" stroke="none">
<path d="M940 1979 c-30 -16 -161 -85 -290 -152 -129 -67 -270 -140 -312 -162
l-78 -40 0 -57 c0 -54 2 -58 30 -73 l30 -16 0 -119 0 -119 30 -16 c23 -12 30
-22 30 -45 0 -23 7 -33 30 -45 23 -12 30 -22 30 -45 0 -27 9 -34 142 -104
l142 -74 55 28 c114 59 116 61 112 113 -3 62 3 71 40 52 29 -15 29 -16 29
-105 0 -87 1 -91 25 -102 19 -8 25 -19 25 -42 0 -24 7 -35 30 -48 22 -13 30
-24 30 -46 0 -26 10 -33 144 -103 l144 -76 86 45 86 44 0 89 c0 49 2 89 5 89
3 0 16 -6 28 -14 21 -14 42 -4 337 149 314 164 315 164 318 137 2 -18 13 -33
32 -44 28 -16 32 -16 60 0 l30 17 0 116 c0 114 0 116 -25 127 -14 7 -31 12
-37 12 -7 0 -165 -79 -352 -177 l-341 -176 -95 50 c-448 236 -471 247 -506
234 -28 -10 -38 -9 -65 4 -25 13 -30 21 -26 41 6 31 13 26 -221 147 l-184 95
179 92 c98 51 202 106 231 122 41 24 53 27 58 15 3 -8 4 -20 2 -26 -2 -7 9
-22 23 -33 25 -19 28 -19 58 -4 l31 17 0 118 c0 117 0 118 -25 129 -36 17 -43
15 -105 -19z m-182 -666 c20 -12 22 -21 22 -106 l0 -93 -59 -28 -59 -29 -83
45 c-75 39 -84 47 -87 74 -2 21 -11 36 -28 44 -23 13 -24 16 -24 137 l0 124
148 -77 c81 -42 157 -83 170 -91z m660 -462 l3 -121 -33 -16 c-32 -15 -34 -14
-118 30 -76 40 -85 48 -88 76 -2 21 -11 34 -28 42 -18 9 -24 19 -24 43 0 27
-5 35 -30 45 l-30 12 0 95 0 95 173 -90 172 -89 3 -122z"/>
</g>
</svg>
